<?xml version="1.0" standalone="no"?>
<!DOCTYPE svg PUBLIC "-//W3C//DTD SVG 20010904//EN"
 "http://www.w3.org/TR/2001/REC-SVG-20010904/DTD/svg10.dtd">
<svg version="1.0" xmlns="http://www.w3.org/2000/svg"
 width="3840.000000pt" height="2160.000000pt" viewBox="0 0 3840.000000 2160.000000"
 preserveAspectRatio="xMidYMid meet">
<metadata>
Created by potrace 1.16, written by Peter Selinger 2001-2019
</metadata>
<g transform="translate(0.000000,2160.000000) scale(0.100000,-0.100000)"
fill="#000000" stroke="none">
<path d="M0 15100 l0 -6500 78 0 c42 0 219 7 392 15 173 8 376 17 450 20 74 3
234 10 355 15 121 6 324 15 450 20 127 5 415 19 640 30 226 10 469 22 540 25
72 3 209 10 305 15 96 6 220 12 275 15 836 44 1049 56 1100 60 33 2 107 7 165
10 195 10 305 16 350 20 25 2 113 7 195 10 83 3 168 8 190 10 175 17 216 17
232 -2 13 -16 14 -16 9 0 -5 15 2 17 47 19 29 0 64 2 80 3 15 1 27 -2 27 -7 0
-5 9 -4 21 2 24 14 37 6 21 -13 -7 -8 -7 -18 -2 -27 8 -12 10 -12 10 3 0 10 5
27 10 38 9 16 15 17 31 8 14 -7 29 -7 49 0 24 8 30 7 35 -8 3 -10 2 -27 -2
-37 -6 -16 -5 -17 9 -4 17 16 19 31 3 42 -19 14 6 22 35 11 20 -7 30 -8 33 0
1 5 29 11 61 12 52 3 58 1 68 -21 6 -13 15 -24 20 -24 4 0 8 -4 8 -10 0 -5 -7
-7 -15 -4 -21 9 -19 -9 5 -29 11 -9 20 -28 20 -42 0 -15 4 -23 10 -20 6 4 7
-1 3 -12 -6 -15 -8 -13 -18 10 -6 15 -14 24 -18 21 -4 -4 -7 0 -7 10 0 11 5
15 13 10 8 -5 8 -3 -1 7 -11 12 -16 11 -29 -6 -15 -19 -15 -19 -9 8 8 32 -2
34 -34 7 -29 -25 -43 -16 -35 21 7 32 1 36 -22 14 -11 -12 -12 -19 -4 -29 6
-7 7 -17 3 -21 -4 -5 -1 -5 5 -1 8 4 13 1 13 -9 0 -9 -5 -13 -11 -9 -6 3 -16
0 -21 -7 -7 -10 -8 -6 -5 14 5 31 -10 37 -21 8 -4 -11 -11 -19 -17 -18 -5 1
-9 -12 -9 -30 1 -23 -3 -30 -12 -26 -23 8 -16 38 16 74 16 19 29 39 29 44 0 6
-3 4 -6 -3 -2 -6 -9 -10 -14 -6 -5 3 -9 -1 -9 -9 0 -16 -27 -30 -41 -21 -5 3
-9 -5 -9 -16 0 -16 -4 -20 -16 -16 -9 3 -18 6 -20 6 -2 0 -4 8 -5 18 0 10 -3
12 -6 4 -2 -6 -8 -10 -12 -8 -3 2 -11 -7 -18 -20 -9 -19 -8 -24 2 -24 7 0 15
7 19 15 3 8 12 12 21 9 12 -5 10 -10 -10 -26 -14 -10 -29 -16 -35 -13 -5 3
-14 -5 -20 -19 -13 -35 -30 -33 -30 5 0 19 -4 28 -11 24 -6 -4 -8 -14 -5 -22
7 -16 -31 -66 -54 -71 -7 -2 -17 3 -21 10 -4 7 -11 9 -15 5 -4 -3 -1 -13 6
-22 10 -12 16 -13 27 -4 11 9 12 9 8 -4 -4 -8 -2 -18 4 -22 6 -3 11 0 11 8 0
8 7 18 16 21 9 4 14 13 10 21 -3 8 -1 15 3 15 5 0 11 -7 15 -15 3 -8 2 -15 -2
-15 -4 0 -13 -10 -21 -21 -11 -19 -11 -21 3 -16 20 8 56 -12 56 -31 0 -8 -8
-6 -22 8 -19 17 -24 18 -38 5 -19 -17 -64 -9 -56 10 3 8 -2 16 -10 19 -13 5
-20 -26 -15 -74 1 -10 -6 -6 -19 9 -12 13 -17 27 -12 30 5 3 12 16 16 28 6 18
4 20 -13 16 -12 -3 -17 -11 -14 -19 3 -8 0 -14 -6 -14 -6 0 -11 7 -11 15 0 8
-4 15 -10 15 -5 0 -10 4 -10 10 0 5 7 7 15 4 8 -4 15 -4 15 -1 0 3 -7 7 -15
10 -9 4 -19 -5 -29 -23 -12 -25 -12 -30 -1 -30 8 0 12 -6 9 -14 -3 -7 2 -16
11 -20 9 -3 13 -2 10 4 -3 6 1 10 9 10 22 0 20 -21 -3 -27 -12 -3 -21 -16 -23
-34 -4 -23 -1 -29 10 -24 10 4 12 0 8 -11 -3 -8 -6 -23 -6 -32 0 -12 -3 -13
-11 -5 -6 6 -11 31 -11 55 l1 43 -16 -33 c-8 -17 -18 -32 -22 -32 -9 0 -33 41
-27 47 9 9 27 -8 20 -19 -4 -6 -1 -9 7 -6 8 3 13 15 12 27 -2 11 1 21 5 21 5
0 9 6 9 14 0 8 -3 15 -6 14 -20 -2 -30 4 -33 19 -3 15 -4 15 -17 0 -12 -15
-11 -17 3 -17 18 0 20 -8 6 -30 -6 -10 -10 -11 -10 -2 0 6 -4 12 -9 12 -4 0
-5 -18 -1 -41 7 -37 5 -41 -17 -50 -14 -5 -29 -7 -34 -3 -12 7 -12 34 1 34 5
0 7 -7 4 -15 -9 -22 9 -18 24 5 10 17 10 20 -3 20 -18 0 -19 5 -3 29 9 15 9
23 -2 36 -7 9 -19 14 -27 11 -19 -8 -43 4 -43 21 0 8 4 11 10 8 5 -3 7 0 4 9
-5 12 -9 13 -19 3 -10 -10 -10 -17 2 -40 7 -15 11 -32 8 -37 -3 -6 -2 -10 3
-10 15 0 20 -33 9 -60 -9 -24 -9 -24 -17 -5 -7 18 -10 16 -24 -17 -9 -21 -16
-49 -16 -63 0 -14 -5 -25 -10 -25 -6 0 -8 10 -4 24 3 13 1 34 -6 45 -13 26
-50 28 -50 4 0 -15 2 -16 10 -3 9 13 11 13 20 0 6 -8 9 -24 9 -35 -1 -11 1
-28 5 -37 9 -19 -1 -41 -14 -33 -5 3 -7 24 -5 46 4 39 3 41 -21 36 -14 -2 -22
-2 -20 1 5 4 -37 42 -47 42 -3 0 -4 -11 -3 -23 1 -16 6 -22 16 -20 9 2 26 -7
39 -21 21 -23 23 -28 11 -56 -7 -16 -17 -30 -22 -30 -5 0 -6 5 -2 12 5 7 2 9
-8 5 -11 -4 -18 1 -21 14 -6 24 -27 25 -27 2 0 -10 -7 -27 -15 -37 -15 -19
-15 -19 -15 2 0 25 -18 30 -26 8 -8 -22 -34 -28 -50 -12 -19 19 -18 32 1 16
12 -10 21 -8 50 10 19 12 35 28 35 36 0 7 6 11 14 8 7 -3 16 2 20 11 3 10 2
14 -5 10 -16 -11 -37 14 -32 38 l5 22 -17 -23 c-9 -12 -21 -20 -26 -17 -5 3
-6 -1 -3 -9 3 -8 11 -13 19 -10 8 4 12 -4 13 -21 0 -22 -4 -26 -20 -22 -11 3
-18 3 -15 0 3 -3 1 -11 -6 -18 -15 -16 -47 2 -47 27 0 10 -5 18 -11 18 -5 0
-7 -5 -3 -12 4 -6 -1 -17 -10 -23 -14 -11 -15 -13 -1 -19 8 -3 15 -12 15 -21
0 -8 5 -15 11 -15 5 0 8 -4 4 -10 -3 -5 -12 -7 -20 -3 -8 3 -15 1 -15 -5 0 -6
6 -12 13 -15 6 -2 9 -8 5 -12 -4 -4 -17 2 -29 14 -13 12 -18 21 -13 21 15 0
10 38 -5 53 -11 10 -12 7 -7 -15 6 -26 -9 -86 -20 -76 -2 3 -5 26 -7 51 -1 27
-7 49 -14 52 -7 2 -13 -2 -13 -9 0 -8 5 -16 11 -18 9 -3 9 -9 0 -26 -12 -23
-5 -72 10 -72 5 0 9 -4 9 -10 0 -5 -7 -7 -15 -4 -9 4 -15 0 -15 -10 0 -9 -5
-16 -11 -16 -7 0 -9 10 -5 26 8 29 -1 67 -13 59 -12 -7 -44 25 -65 68 -11 20
-23 37 -29 37 -5 0 -4 -7 3 -15 7 -8 9 -15 4 -15 -5 0 -1 -5 9 -11 9 -5 17
-21 17 -34 0 -16 6 -25 16 -25 14 0 14 -3 4 -15 -15 -18 1 -20 18 -3 19 19 15
-12 -4 -33 -13 -14 -19 -15 -29 -6 -7 7 -11 17 -8 23 5 13 -15 30 -23 21 -3
-3 0 -15 6 -27 14 -26 6 -38 -14 -21 -12 10 -14 9 -9 -8 3 -12 9 -18 14 -15 5
3 9 1 9 -5 0 -5 -4 -12 -9 -15 -12 -8 -54 61 -46 74 3 5 2 10 -3 10 -13 0 -52
-48 -52 -66 0 -19 25 -13 26 7 2 31 5 32 21 9 10 -14 19 -38 19 -55 1 -18 0
-21 -3 -8 -2 12 -11 24 -20 28 -21 7 -48 -19 -38 -36 6 -9 11 -7 22 6 12 18
13 18 13 -2 0 -25 -26 -38 -34 -16 -5 12 -9 13 -21 3 -21 -18 -44 -5 -60 32
-16 36 -17 36 -19 -3 -1 -18 2 -25 11 -22 7 3 13 0 13 -6 0 -6 -5 -11 -11 -11
-6 0 -8 -7 -5 -15 3 -9 -1 -18 -9 -21 -8 -4 -15 -14 -16 -23 0 -11 -3 -9 -9 7
-5 12 -15 22 -22 22 -9 0 -9 3 2 10 13 9 13 10 0 10 -9 0 -23 -9 -33 -20 -23
-28 -37 -25 -37 8 0 19 -3 23 -9 13 -5 -8 -16 -11 -30 -6 -12 4 -21 2 -21 -4
0 -6 3 -10 8 -10 20 3 42 -2 42 -11 0 -5 -7 -7 -15 -4 -9 4 -15 0 -15 -9 0
-22 -28 -43 -41 -30 -8 8 -6 11 6 10 10 -1 20 5 22 13 4 12 3 13 -5 1 -5 -7
-15 -10 -22 -6 -7 4 -13 -1 -17 -13 -5 -20 -33 -20 -33 0 0 5 5 6 11 3 6 -4
13 2 16 14 3 12 10 21 16 21 6 0 7 3 4 6 -4 4 -17 -1 -31 -9 -23 -16 -25 -16
-31 3 -8 26 -22 26 -30 0 -4 -11 -10 -18 -15 -15 -4 3 -14 -3 -21 -12 -12 -15
-12 -16 6 -9 11 5 29 11 40 14 19 5 18 3 -2 -15 -13 -11 -23 -28 -23 -37 0
-11 -4 -14 -12 -9 -7 4 -21 6 -30 5 -10 -2 -18 2 -18 7 0 6 7 11 17 11 9 0 14
3 10 6 -3 3 -14 3 -25 0 -14 -5 -18 -15 -17 -41 1 -35 -8 -45 -20 -25 -4 6 -1
18 6 27 11 13 10 17 -6 29 -29 21 -37 17 -30 -17 7 -29 6 -31 -16 -24 -20 7
-22 6 -12 -6 8 -10 9 -20 3 -29 -8 -13 -10 -12 -10 2 0 9 -4 19 -9 22 -14 9
-41 -4 -41 -20 0 -20 -25 -7 -40 21 l-13 25 -24 -35 c-13 -19 -28 -35 -33 -35
-12 0 -24 46 -16 65 7 18 -3 19 -27 1 -22 -17 -24 -58 -2 -50 8 4 15 1 15 -5
0 -6 -8 -12 -17 -13 -33 -2 -38 -4 -51 -11 -6 -5 -12 -14 -11 -20 0 -9 2 -9 6
1 7 18 23 15 23 -4 0 -9 -8 -23 -17 -30 -15 -11 -15 -13 -3 -14 9 0 23 -9 33
-20 16 -19 16 -21 -3 -40 -15 -15 -20 -16 -20 -6 0 8 5 16 11 18 5 2 7 11 4
21 -4 9 -11 15 -15 12 -4 -3 -13 2 -20 10 -7 8 -19 15 -26 15 -8 0 -14 5 -14
10 0 6 -9 10 -20 10 -24 0 -25 -6 -5 -27 9 -8 22 -13 29 -10 18 7 27 -15 14
-34 -7 -11 -11 -11 -15 -1 -2 6 -9 10 -14 6 -5 -3 -9 1 -9 9 0 8 -7 20 -15 27
-8 7 -15 21 -15 31 0 23 -13 24 -30 4 -10 -12 -9 -16 4 -21 9 -3 16 -11 16
-17 0 -5 -9 -2 -20 8 -11 10 -17 21 -15 25 8 12 -5 38 -21 44 -11 4 -13 -1 -8
-22 7 -28 32 -73 47 -83 5 -4 4 -10 -2 -13 -6 -4 -15 4 -22 21 -18 49 -31 57
-46 31 -8 -13 -12 -15 -9 -6 3 9 0 18 -6 20 -6 2 -3 11 7 22 26 26 -1 42 -30
18 -11 -9 -22 -19 -25 -21 -3 -2 6 0 19 4 20 6 23 4 18 -10 -4 -9 -7 -19 -7
-22 0 -3 -7 0 -15 7 -15 13 -20 5 -16 -27 3 -18 -18 -16 -25 2 -6 14 -8 13
-19 -2 -11 -14 -17 -15 -38 -6 -20 10 -26 9 -31 -3 -3 -8 1 -14 9 -14 8 0 15
-3 16 -7 5 -69 5 -83 -1 -83 -19 0 -31 29 -20 49 8 17 8 21 -4 21 -8 0 -16 6
-19 13 -2 6 -8 8 -13 4 -5 -5 -2 -13 8 -18 21 -12 13 -45 -13 -52 -16 -4 -18
-9 -9 -31 7 -20 6 -26 -4 -26 -8 0 -12 -11 -11 -32 3 -43 -3 -58 -21 -51 -8 3
-11 9 -8 14 3 5 2 18 -1 29 -5 17 -9 18 -26 7 -16 -10 -21 -9 -29 3 -8 13 -10
13 -10 -2 0 -9 5 -18 12 -20 7 -3 4 -7 -7 -12 -11 -4 -16 -4 -12 0 9 9 -42 64
-59 64 -6 0 -15 -7 -18 -16 -8 -22 -8 -24 7 -24 21 0 60 -37 54 -52 -2 -7 0
-22 6 -32 7 -15 6 -18 -7 -13 -8 3 -18 2 -21 -4 -4 -5 -11 -6 -17 -3 -7 4 -5
10 6 16 20 11 21 47 1 54 -24 10 -38 -6 -18 -21 14 -11 15 -16 6 -26 -6 -6 -9
-17 -7 -23 2 -6 -5 -12 -16 -13 -11 -1 -20 4 -20 10 0 7 -7 21 -16 32 -13 17
-16 18 -24 5 -5 -8 -9 -22 -9 -30 0 -10 2 -11 6 -2 7 19 23 14 23 -7 0 -11 3
-21 8 -24 4 -2 2 -2 -5 -1 -7 2 -15 -1 -18 -6 -4 -6 6 -11 22 -11 17 -1 21 -3
11 -6 -10 -2 -18 -9 -18 -14 0 -11 3 -11 33 0 32 13 48 0 49 -38 1 -18 4 -27
8 -21 10 16 16 3 18 -37 2 -23 -4 -37 -24 -52 -15 -11 -31 -18 -36 -15 -5 3
-15 -2 -23 -12 -8 -11 -9 -21 -4 -25 11 -7 1 -39 -12 -39 -5 0 -4 -9 3 -19 11
-18 12 -18 25 6 16 32 17 50 1 56 -9 3 -7 7 6 12 11 5 27 3 37 -4 17 -10 19
-8 19 15 0 19 4 25 14 21 10 -4 13 -1 10 7 -3 8 4 21 16 29 11 8 19 20 17 28
-2 8 -2 11 0 7 9 -15 32 -8 38 12 6 17 8 18 21 6 19 -19 18 -27 -2 -19 -13 5
-15 2 -9 -15 7 -24 -4 -29 -23 -10 -9 9 -12 7 -12 -9 0 -12 -4 -24 -9 -27 -13
-8 4 -62 18 -59 6 2 11 -1 11 -6 0 -10 -39 -27 -54 -23 -5 2 -6 -4 -3 -13 4
-8 2 -15 -3 -15 -6 0 -10 -7 -10 -15 0 -9 -7 -18 -15 -21 -17 -7 -20 -40 -4
-49 6 -4 9 0 7 8 -2 9 1 17 7 19 5 2 11 -9 12 -25 1 -18 -2 -25 -9 -21 -7 4
-8 2 -4 -4 9 -15 38 -3 32 14 -3 8 0 11 8 8 8 -3 17 0 22 7 5 8 3 10 -6 4 -9
-5 -11 -4 -6 3 4 7 18 9 31 6 20 -5 27 -1 36 20 13 28 32 37 22 9 -5 -12 -1
-11 15 5 12 12 21 31 19 43 -1 12 3 24 10 26 7 3 9 -4 6 -19 -6 -21 -3 -20 27
9 19 18 37 33 42 33 14 0 -16 -40 -34 -46 -9 -2 -23 -15 -31 -27 -23 -35 -61
-72 -74 -73 -30 -2 -36 -4 -31 -9 6 -6 -45 -65 -56 -65 -3 0 -3 7 0 15 4 8 1
15 -6 15 -8 0 -10 -9 -5 -27 8 -33 16 -43 22 -26 2 7 11 9 19 6 10 -4 13 0 8
13 -5 15 -4 16 4 5 6 -8 8 -21 5 -30 -4 -14 -3 -14 9 1 13 15 15 15 26 -3 16
-26 31 -24 24 3 -3 13 -1 19 6 15 5 -4 12 -2 14 4 3 9 9 9 26 0 28 -15 29 -35
1 -28 -13 3 -19 1 -16 -6 2 -7 -5 -17 -16 -23 -20 -11 -20 -12 2 -19 19 -6 22
-12 17 -36 -7 -39 9 -45 24 -9 7 17 19 30 27 30 18 0 -2 -36 -58 -100 -29 -34
-41 -42 -50 -33 -16 16 16 67 37 59 8 -3 14 -1 14 4 0 6 -7 10 -15 10 -10 0
-15 11 -15 35 0 19 -4 35 -9 35 -11 0 -24 -48 -15 -61 10 -17 -5 -59 -21 -59
-17 0 -20 -17 -4 -22 6 -2 12 -15 12 -30 l2 -26 26 29 c20 23 28 26 38 16 11
-10 12 -8 6 11 -6 21 10 33 17 12 5 -15 48 18 48 37 0 12 -5 11 -20 -7 -16
-18 -20 -20 -20 -7 0 10 5 17 10 17 6 0 10 6 10 14 0 9 7 12 19 9 10 -3 22 0
25 6 10 16 26 13 26 -4 0 -19 14 -19 29 -1 9 11 7 15 -9 19 -20 5 -28 27 -10
27 6 0 10 5 10 10 0 6 -7 10 -15 10 -8 0 -15 -9 -15 -20 0 -21 -8 -25 -25 -12
-15 11 -12 42 5 52 12 8 11 10 -7 10 -12 0 -23 6 -26 13 -4 12 20 36 38 37 6
0 3 -5 -5 -10 -13 -8 -13 -10 2 -10 9 0 19 6 22 13 5 9 7 9 12 -1 3 -6 10 -10
15 -6 5 3 9 0 9 -5 0 -6 -9 -11 -21 -11 -15 0 -19 -4 -15 -16 3 -9 6 -18 6
-20 0 -3 4 -3 8 0 18 11 34 -14 37 -55 4 -57 5 -59 15 -29 8 25 8 24 9 -5 1
-17 5 -45 10 -63 6 -20 6 -30 0 -27 -5 4 -9 15 -9 26 0 10 -4 19 -9 19 -4 0
-24 11 -44 24 -50 34 -74 2 -30 -42 16 -16 17 -29 2 -37 -13 -9 -20 -2 -23 21
-2 10 -8 20 -15 22 -9 3 -7 -7 4 -29 l18 -34 -25 23 c-30 27 -41 28 -33 2 5
-15 2 -20 -12 -20 -15 0 -16 2 -3 10 11 7 12 10 2 10 -8 0 -19 -13 -25 -30
-11 -30 -24 -37 -43 -22 -5 4 -6 3 -2 -2 4 -6 0 -18 -9 -28 -9 -10 -11 -18 -5
-18 6 0 14 4 17 10 3 6 11 10 16 10 6 0 8 -4 5 -8 -3 -5 4 -18 14 -30 26 -27
25 -58 0 -72 -11 -6 -19 -14 -19 -18 4 -22 -2 -42 -11 -37 -5 3 -18 1 -27 -4
-17 -10 -17 -10 1 -11 15 0 16 -3 6 -15 -12 -15 -6 -35 11 -35 6 0 7 5 4 10
-3 6 1 10 9 10 9 0 16 5 16 11 0 6 6 9 13 6 14 -5 16 41 2 63 -5 9 -4 11 3 6
7 -4 14 3 18 18 8 32 33 41 50 19 11 -15 10 -19 -2 -21 -13 -3 -12 -6 3 -18
24 -18 37 -18 29 1 -3 8 -1 15 4 15 6 0 10 -9 10 -19 0 -11 5 -23 10 -26 6 -3
10 -14 10 -23 -1 -14 -3 -14 -13 3 -13 21 -37 26 -50 10 -5 -5 -5 0 -2 13 5
16 2 22 -10 22 -14 0 -16 6 -10 27 4 16 3 25 0 21 -4 -4 -10 -22 -14 -40 -5
-24 -3 -36 8 -46 14 -11 14 -11 0 -6 -13 4 -16 -1 -14 -20 2 -18 -1 -23 -11
-19 -22 8 -47 -17 -33 -33 14 -17 5 -18 -23 -1 -34 18 -45 31 -41 44 2 6 -5
17 -16 23 -27 14 -27 30 0 23 17 -5 20 -2 17 17 -2 13 3 25 11 28 10 3 12 0 8
-12 -5 -11 -3 -16 5 -14 19 7 20 25 1 44 -11 11 -14 19 -6 21 14 5 5 40 -13
47 -8 3 -14 1 -14 -4 0 -6 5 -10 10 -10 15 0 12 -27 -6 -44 -9 -9 -11 -16 -4
-16 6 0 8 -4 5 -10 -9 -14 -22 -12 -29 5 -3 8 2 21 10 30 10 10 11 15 3 15 -8
0 -9 10 -5 32 l6 33 -22 -29 c-13 -16 -31 -38 -40 -48 -17 -17 -17 -18 1 -18
11 0 22 8 25 18 3 9 4 -2 2 -26 -3 -29 -11 -48 -27 -61 -17 -14 -22 -27 -21
-59 1 -32 -3 -44 -17 -52 -14 -7 -22 -7 -26 0 -4 6 -11 8 -16 5 -7 -5 -6 33 2
43 1 1 2 5 3 10 1 9 21 34 59 72 23 23 25 28 9 23 -12 -3 -22 1 -25 11 -4 9
-14 16 -23 16 -12 0 -15 6 -11 21 5 17 3 18 -9 8 -8 -7 -13 -18 -10 -25 3 -7
1 -16 -4 -19 -6 -4 -10 0 -11 7 0 7 -7 -3 -16 -22 -8 -19 -19 -37 -23 -40 -10
-7 7 -50 20 -50 6 0 6 7 -2 20 -11 17 -8 23 22 49 41 35 55 38 57 12 1 -12 -7
-21 -20 -25 -18 -5 -20 -8 -7 -16 12 -8 11 -10 -7 -10 -13 0 -22 -5 -20 -12 3
-18 -45 -40 -55 -25 -6 9 -12 9 -28 0 -11 -7 -27 -13 -35 -13 -19 0 -20 -26
-1 -33 9 -4 17 1 19 11 4 13 5 13 6 -3 1 -21 -16 -45 -32 -45 -4 0 -5 5 -2 10
3 6 -1 10 -9 10 -8 0 -18 -5 -21 -11 -4 -6 -19 -10 -33 -9 -41 3 -45 1 -32
-15 15 -18 -1 -20 -18 -3 -9 9 -12 8 -12 -7 0 -16 -2 -17 -9 -6 -5 8 -7 20 -4
28 3 7 0 13 -5 13 -19 0 -21 -16 -7 -43 14 -27 11 -37 -13 -37 -9 0 -12 6 -8
16 4 10 2 13 -6 8 -8 -5 -9 -2 -5 9 6 15 2 18 -20 16 -5 0 -7 -7 -5 -15 2 -8
-2 -14 -8 -14 -6 0 -8 5 -5 10 3 6 0 10 -9 10 -8 0 -17 -6 -19 -12 -3 -8 -6
-7 -6 4 -1 9 4 20 9 23 11 7 4 25 -8 25 -4 0 -13 -14 -21 -31 -9 -20 -18 -28
-28 -25 -11 4 -13 1 -8 -14 7 -23 2 -25 -25 -7 -17 10 -22 9 -29 -1 -5 -8 -12
1 -21 28 -9 27 -19 40 -31 40 -12 0 -16 -5 -13 -15 4 -8 2 -15 -4 -15 -6 0
-12 5 -14 12 -3 7 -7 5 -11 -6 -4 -10 -3 -15 3 -11 6 3 10 -1 10 -9 0 -8 -5
-18 -10 -21 -6 -4 -8 -10 -5 -15 8 -13 -26 -21 -40 -10 -7 6 -10 21 -7 33 5
19 3 20 -10 10 -11 -10 -17 -10 -26 -1 -8 8 -12 9 -12 1 0 -6 7 -13 15 -17 13
-5 13 -9 3 -25 -9 -15 -15 -17 -26 -9 -7 6 -10 18 -7 26 3 9 0 19 -6 23 -9 5
-8 12 4 24 23 22 22 32 -1 12 -22 -20 -43 -22 -62 -4 -12 10 -12 9 -1 -6 8 -9
12 -20 9 -22 -8 -8 -36 5 -41 18 -2 7 -3 4 -2 -5 2 -10 -1 -21 -6 -24 -5 -3
-9 0 -9 6 0 6 -4 8 -10 5 -16 -10 -12 -45 5 -45 8 0 15 -6 15 -13 0 -9 -10
-12 -30 -9 -21 3 -30 10 -30 23 0 18 -1 18 -20 1 -17 -14 -18 -18 -5 -20 21
-5 19 -29 -5 -42 -11 -6 -20 -7 -19 -3 5 31 -23 48 -34 21 -3 -7 -4 1 -3 17 2
17 1 24 -1 17 -3 -7 -9 -10 -14 -7 -15 10 -10 -22 6 -39 19 -19 19 -26 -1 -26
-11 0 -14 -6 -9 -21 11 -33 -11 -14 -23 20 -9 26 -8 29 5 24 13 -5 15 -2 10
11 -4 10 -7 22 -7 26 0 5 -9 14 -20 20 -16 9 -20 8 -20 -5 0 -10 5 -13 12 -9
8 5 9 2 5 -10 -4 -10 -7 -22 -7 -27 0 -5 -7 -9 -15 -9 -8 0 -15 5 -15 10 0 6
-5 10 -11 10 -6 0 -8 -8 -4 -19 6 -21 -14 -34 -35 -21 -9 6 -8 10 5 17 10 6
16 15 14 22 -3 7 -15 2 -31 -13 -28 -23 -39 -44 -17 -30 16 10 30 -18 17 -34
-9 -10 -8 -12 2 -10 7 2 14 -2 17 -8 2 -6 -3 -11 -12 -11 -8 0 -15 4 -15 8 0
5 -10 13 -21 20 -17 9 -20 8 -17 -2 2 -7 -7 -25 -21 -39 -23 -22 -28 -23 -38
-10 -11 13 -12 13 -13 -4 0 -15 -3 -16 -15 -6 -10 9 -15 9 -15 1 0 -6 -5 -11
-12 -11 -7 0 3 15 20 33 18 18 30 35 28 38 -3 3 4 10 14 17 11 7 20 8 20 3 0
-6 -5 -13 -10 -16 -12 -7 -13 -45 -2 -45 10 0 30 38 34 65 3 20 -6 23 -42 14
-10 -3 -14 2 -12 13 2 12 -2 16 -11 12 -11 -4 -13 1 -10 19 4 22 2 24 -24 19
-19 -4 -22 -7 -10 -10 20 -4 22 -13 5 -30 -9 -9 -9 -12 2 -12 9 0 8 -5 -5 -20
-22 -25 -32 -25 -38 -2 -4 16 -5 16 -6 0 0 -10 -8 -18 -17 -18 -9 0 -12 5 -8
13 3 6 -7 -1 -23 -18 -31 -32 -29 -54 4 -37 22 12 36 5 46 -20 9 -26 -8 -22
-21 5 -6 12 -11 17 -11 10 -1 -6 -17 -21 -36 -33 -19 -12 -35 -28 -35 -36 0
-9 -5 -12 -10 -9 -6 4 -7 11 -4 17 4 6 0 14 -7 19 -12 8 -11 12 3 23 10 7 18
18 18 23 0 6 7 16 15 23 8 7 15 21 15 31 0 12 5 16 15 13 11 -5 15 1 15 20 l0
27 -26 -28 c-25 -27 -26 -27 -40 -8 -8 11 -12 26 -9 33 3 8 0 12 -7 10 -7 -3
-13 -10 -12 -16 1 -7 2 -21 3 -33 0 -11 5 -18 9 -15 5 3 7 -5 6 -17 -1 -12 -3
-25 -3 -29 -2 -15 -30 -8 -40 9 -8 15 -11 15 -12 3 -1 -8 -1 -21 0 -28 1 -6
-3 -12 -9 -12 -7 0 -21 -10 -32 -22 l-20 -23 16 27 c17 29 11 62 -9 54 -8 -3
-16 1 -19 9 -3 8 -14 19 -26 25 -20 11 -21 10 -10 -9 6 -12 15 -21 19 -21 5 0
11 -11 13 -25 5 -22 3 -24 -11 -13 -9 7 -21 19 -27 27 -6 8 -16 11 -22 7 -13
-8 -26 29 -16 45 4 8 3 9 -4 5 -7 -4 -12 -22 -12 -40 0 -31 -2 -33 -34 -31
-25 1 -33 -2 -29 -12 4 -9 0 -11 -13 -7 -11 4 -16 4 -12 -1 4 -4 3 -14 -3 -21
-8 -10 -7 -17 4 -28 13 -14 16 -14 27 -1 7 8 17 15 22 15 6 0 5 -7 -2 -15 -10
-13 -9 -19 6 -36 16 -17 16 -19 1 -13 -11 4 -19 0 -23 -10 -3 -9 -10 -16 -15
-16 -6 0 -5 8 0 19 9 16 8 18 -9 14 -11 -3 -31 -2 -45 1 -23 6 -24 8 -10 22
19 20 11 34 -15 27 -17 -5 -20 0 -21 28 0 28 -2 30 -8 14 -5 -11 -6 -24 -4
-30 2 -5 -2 -2 -11 8 -14 19 -11 46 7 58 5 3 -6 9 -24 13 -24 4 -35 2 -45 -11
-20 -26 -17 -39 4 -20 23 21 36 22 29 3 -3 -7 -1 -18 3 -22 5 -5 5 -15 0 -24
-8 -12 -14 -12 -46 3 -20 10 -38 17 -39 15 -1 -2 9 -14 23 -28 13 -14 22 -19
18 -12 -4 6 -2 12 3 12 6 0 11 -4 11 -8 0 -5 11 -14 24 -21 26 -14 35 -64 10
-54 -8 3 -14 11 -14 18 0 8 -4 16 -9 19 -4 3 -6 -12 -4 -33 3 -21 0 -41 -5
-45 -5 -3 -9 9 -10 26 -1 40 -15 54 -34 34 -27 -27 -83 -18 -93 15 -9 27 -83
30 -123 5 -7 -4 -19 -2 -27 4 -12 10 -15 9 -15 -3 0 -8 -3 -24 -6 -34 -6 -15
-4 -16 7 -6 18 18 46 16 53 -3 5 -13 9 -14 21 -4 8 7 15 8 15 4 0 -15 42 -36
52 -26 15 15 -3 44 -23 39 -11 -3 -21 -2 -24 3 -3 4 5 10 18 14 33 9 37 8 37
-9 0 -8 11 -17 25 -21 14 -3 25 -13 25 -21 0 -8 -5 -11 -10 -8 -6 3 -15 -6
-20 -20 -12 -32 -12 -46 -1 -64 8 -12 12 -12 25 -2 9 8 16 9 16 4 0 -5 12 -10
26 -11 15 -1 33 -10 40 -20 10 -13 15 -14 25 -5 7 7 18 8 28 3 59 -29 67 -31
95 -20 26 9 27 9 16 -5 -11 -13 -9 -15 11 -15 13 0 30 4 38 9 10 7 19 4 28 -7
11 -15 12 -15 13 6 0 12 4 22 10 22 5 0 7 -7 4 -15 -4 -8 -1 -15 6 -15 7 0 28
-7 47 -16 25 -13 37 -14 46 -5 15 15 27 14 27 -4 0 -8 3 -15 8 -16 71 -5 108
-12 118 -20 11 -9 33 -14 109 -23 12 -1 27 -6 35 -12 8 -5 41 -9 73 -10 39 -1
62 -6 68 -15 5 -8 9 -11 9 -8 0 6 90 -10 200 -36 36 -8 90 -19 120 -25 69 -13
84 -16 145 -29 28 -7 73 -14 100 -17 58 -5 135 -25 135 -35 0 -4 -12 -9 -26
-12 -25 -4 -63 5 -110 26 -12 5 -31 6 -42 3 -11 -4 -23 -2 -27 3 -4 7 -14 7
-31 1 -16 -7 -32 -7 -44 0 -24 13 -67 13 -75 1 -7 -12 -65 7 -65 20 0 5 -11 9
-24 9 -14 0 -36 4 -50 10 -17 6 -26 6 -26 0 0 -6 -11 -10 -25 -10 -16 0 -25 6
-25 16 0 12 -3 14 -13 6 -7 -6 -34 -12 -60 -14 -35 -2 -46 -7 -42 -17 4 -9 0
-11 -11 -7 -8 3 -21 6 -28 6 -6 0 -17 14 -23 31 -7 17 -16 28 -22 25 -6 -4 -8
-13 -4 -21 3 -8 0 -15 -6 -15 -6 0 -11 6 -11 14 0 7 -11 14 -25 15 -49 3 -53
4 -48 18 3 7 0 13 -6 13 -6 0 -11 -9 -11 -20 0 -21 -24 -28 -35 -10 -3 6 -19
10 -35 10 -16 0 -32 5 -35 10 -10 16 -48 12 -42 -5 5 -11 0 -13 -23 -8 -35 7
-41 -12 -8 -23 31 -10 51 -31 37 -40 -6 -3 -15 0 -20 7 -5 8 -9 11 -9 7 0 -4
-10 3 -23 15 -13 12 -20 26 -15 32 12 14 10 25 -7 25 -8 0 -15 -5 -15 -11 0
-7 -9 -9 -21 -6 -15 4 -19 2 -15 -10 3 -8 9 -27 13 -41 l6 -27 -29 32 c-34 37
-92 58 -80 28 5 -15 3 -16 -16 -10 -13 4 -35 7 -50 7 -19 -1 -25 3 -22 12 7
19 -33 27 -47 9 -10 -12 -10 -16 1 -23 8 -5 11 -12 7 -17 -4 -4 -16 -2 -25 5
-31 22 -45 25 -63 13 -16 -9 -19 -8 -19 5 0 13 -3 14 -15 4 -8 -6 -23 -9 -36
-5 -18 6 -20 4 -14 -17 l7 -23 -17 23 c-13 17 -14 26 -6 36 9 10 8 15 -4 20
-9 3 -13 2 -10 -4 3 -6 1 -10 -4 -10 -6 0 -11 -6 -11 -14 0 -12 -7 -13 -32 -5
-18 5 -34 9 -35 9 -1 0 0 -7 4 -17 6 -14 2 -14 -26 3 -18 10 -35 25 -38 31 -8
20 -33 -12 -33 -42 0 -17 -7 -28 -23 -34 -24 -9 -38 -4 -21 7 19 12 8 49 -22
75 -35 30 -47 26 -14 -5 16 -15 19 -23 11 -26 -8 -3 -16 1 -20 7 -4 6 -22 16
-40 21 -30 8 -33 8 -28 -11 4 -15 2 -19 -10 -15 -36 14 -63 17 -63 8 0 -5 7
-12 15 -16 8 -3 15 -12 15 -21 0 -19 -16 -20 -24 0 -3 8 -15 15 -26 15 -11 0
-20 5 -20 10 0 11 -33 14 -44 3 -3 -4 -15 -7 -26 -8 -19 -2 -19 -1 -3 17 15
17 15 20 3 28 -20 13 -30 12 -30 0 0 -5 5 -10 11 -10 5 0 7 -5 4 -11 -5 -6
-12 -4 -20 8 -7 10 -11 22 -8 27 4 5 1 6 -5 2 -6 -4 -9 -12 -6 -19 6 -17 -29
-37 -47 -26 -11 7 -10 9 4 9 10 0 16 4 12 10 -9 14 -35 0 -35 -20 0 -10 -7
-21 -16 -24 -13 -5 -15 -2 -11 14 6 23 4 24 -24 8 -18 -11 -23 -10 -40 11 -10
13 -19 29 -19 37 0 8 -4 14 -10 14 -5 0 -10 -7 -10 -15 0 -8 5 -15 10 -15 17
0 11 -20 -7 -27 -10 -4 -22 -11 -26 -17 -5 -7 -7 -2 -4 11 4 18 -4 30 -34 54
-29 23 -37 26 -32 12 3 -10 11 -21 16 -24 5 -4 10 -21 11 -38 0 -17 4 -31 7
-31 4 0 9 -6 12 -13 4 -10 -2 -13 -19 -9 -19 3 -23 9 -18 24 5 16 2 19 -14 14
-16 -5 -19 -3 -15 17 3 17 0 23 -16 24 -23 2 -28 -16 -9 -35 10 -10 10 -15 -2
-22 -11 -7 -19 -5 -27 7 -12 16 -13 16 -13 0 0 -9 -5 -17 -11 -17 -6 0 -8 8
-4 19 5 15 1 18 -20 13 -17 -3 -25 -11 -25 -24 0 -13 -5 -18 -14 -15 -7 3 -18
1 -23 -4 -7 -7 -16 -1 -27 15 -17 27 -42 36 -33 13 3 -7 -3 -18 -12 -24 -23
-14 -51 6 -51 37 0 18 -3 20 -13 11 -10 -8 -19 -6 -35 9 -23 22 -42 9 -22 -15
8 -9 8 -15 2 -15 -5 0 -8 -9 -5 -20 4 -14 0 -20 -11 -20 -10 0 -16 9 -16 24 0
13 -7 29 -15 36 -18 15 -20 0 -4 -33 10 -21 9 -21 -5 -3 -9 10 -28 20 -43 21
-64 4 -65 5 -59 21 5 12 2 15 -10 10 -8 -3 -21 -6 -28 -6 -14 0 -14 -37 -2
-80 6 -19 5 -21 -3 -10 -8 10 -11 -824 -11 -2777 l0 -2793 17230 0 17230 0 0
83 c0 91 14 123 66 158 28 18 85 19 1952 19 l1922 0 0 10670 0 10670 -17816 0
c-11874 0 -17813 -3 -17809 -10 3 -5 1 -10 -4 -10 -6 0 -11 5 -11 10 0 7 -467
10 -1380 10 l-1380 0 0 -6500z m18772 -1237 c-11 -4 -243 -284 -372 -448 -30
-38 -60 -77 -67 -85 -319 -395 -449 -569 -626 -837 -388 -586 -473 -758 -508
-1033 -36 -285 91 -530 375 -725 135 -92 325 -178 571 -258 359 -116 726 -205
1060 -257 77 -12 156 -25 175 -29 l35 -8 -45 -6 c-25 -4 -162 -20 -305 -37
-143 -17 -332 -40 -420 -50 -88 -11 -308 -38 -490 -60 -181 -22 -348 -42 -370
-45 -22 -3 -217 -28 -435 -56 -375 -47 -553 -69 -1120 -139 -135 -16 -297 -36
-360 -45 -289 -37 -1674 -195 -2240 -255 -195 -20 -638 -62 -845 -80 -60 -5
-218 -19 -350 -30 -132 -11 -267 -22 -300 -25 -33 -3 -204 -17 -380 -30 -176
-14 -489 -39 -695 -55 -206 -16 -438 -34 -515 -40 -77 -6 -165 -12 -195 -15
-170 -14 -591 -44 -625 -44 -22 0 -51 -3 -65 -6 -14 -3 -68 -7 -120 -10 -203
-10 -287 -16 -342 -24 -49 -6 -58 -5 -59 8 -1 14 -2 13 -6 -1 -3 -12 -14 -16
-37 -15 -31 2 -32 4 -23 25 6 12 20 23 31 23 20 1 20 2 2 6 -14 4 -29 -5 -49
-28 -16 -19 -26 -28 -22 -21 3 6 2 12 -3 12 -6 0 -12 -6 -15 -13 -3 -9 -25
-13 -73 -12 -38 0 -80 -2 -94 -6 -21 -5 -28 -2 -37 17 -9 20 -9 21 7 12 10 -7
25 -8 36 -3 18 8 18 8 -1 13 -33 7 -40 20 -21 41 11 12 14 21 7 26 -6 3 -11
11 -11 17 0 7 6 6 15 -2 18 -15 20 -47 3 -52 -9 -3 -9 -6 0 -12 7 -4 15 0 19
11 9 24 43 54 54 47 5 -3 9 1 9 8 0 7 11 21 25 31 22 16 25 16 33 1 5 -9 14
-14 21 -10 15 10 14 28 -1 24 -7 -2 -14 2 -15 7 -2 6 3 10 10 11 20 1 48 -16
42 -27 -4 -5 -2 -9 4 -9 21 0 19 16 -5 39 -24 23 -31 41 -16 41 4 0 13 -9 20
-20 12 -20 48 -27 54 -11 4 12 33 18 35 7 1 -5 7 -12 13 -16 17 -11 3 -30 -21
-30 -10 0 -19 -6 -19 -13 0 -8 8 -13 17 -12 32 4 58 20 58 35 0 9 7 14 18 12
10 -2 17 3 17 13 0 12 -6 15 -20 10 -14 -5 -20 -2 -20 9 0 9 5 16 10 16 6 0
-1 12 -16 27 -14 14 -33 41 -40 60 -8 19 -26 38 -39 43 -36 14 -31 19 10 10
19 -4 33 -4 30 0 -3 5 5 16 17 24 12 9 18 19 14 23 -4 4 -12 0 -18 -10 -9 -18
-11 -18 -29 2 -11 12 -26 21 -34 21 -19 0 -19 8 -1 26 20 20 43 19 26 -1 -10
-12 -9 -15 6 -17 41 -3 60 4 81 30 28 34 30 18 3 -26 -11 -18 -20 -38 -20 -45
0 -6 5 -4 11 6 14 24 30 21 55 -10 12 -16 26 -24 31 -20 4 5 0 14 -10 21 -9 7
-17 18 -17 25 0 6 -7 11 -15 11 -8 0 -15 7 -15 15 0 8 9 15 19 15 14 0 18 5
14 20 -6 21 13 28 20 8 2 -7 2 -3 0 10 -2 12 -1 22 3 22 3 0 14 -10 24 -22 22
-28 37 -19 18 11 -10 17 -10 23 1 33 10 11 12 10 11 -2 -4 -29 0 -40 16 -40
14 0 14 3 4 15 -9 10 -9 15 -1 15 6 0 11 -4 11 -10 0 -5 4 -10 9 -10 16 0 23
40 10 56 -10 12 -9 13 4 8 12 -4 21 5 33 33 l18 38 4 -29 c2 -17 11 -30 23
-33 10 -3 19 -9 19 -14 0 -16 19 -9 30 11 15 28 2 46 -16 23 -12 -17 -13 -16
-14 10 0 27 2 28 30 22 19 -4 30 -3 30 4 0 17 28 13 32 -5 3 -13 5 -13 23 1
11 9 13 13 5 9 -10 -5 -8 0 5 15 15 18 16 24 6 30 -9 6 -10 11 -2 15 6 4 11
11 11 17 0 13 -23 7 -37 -11 -9 -10 -12 -11 -13 -2 0 6 -5 12 -11 12 -5 0 -7
-5 -3 -11 4 -7 1 -10 -6 -7 -7 2 -14 11 -16 20 -2 14 2 15 22 8 13 -5 24 -6
24 -1 0 5 7 11 15 15 10 4 23 -8 40 -34 33 -51 32 -64 -2 -55 -23 5 -25 4 -14
-9 18 -21 56 -5 57 25 1 12 -5 29 -12 37 -10 9 -11 19 -4 31 10 20 -4 41 -27
41 -7 0 -13 5 -13 10 0 6 11 8 25 4 26 -7 28 -5 19 20 -3 9 -12 12 -22 9 -12
-4 -14 -3 -7 5 16 18 57 19 63 2 5 -13 3 -13 -14 0 -18 15 -18 14 0 -14 10
-16 14 -31 10 -35 -15 -10 -13 -40 2 -34 9 3 14 -2 14 -12 0 -11 -5 -15 -15
-11 -8 3 -15 1 -15 -3 0 -8 31 -25 34 -19 1 2 6 13 13 25 11 19 10 23 -7 28
-20 6 -28 25 -11 25 5 0 11 6 14 13 2 6 2 1 0 -12 -3 -18 0 -22 11 -18 9 4 16
2 16 -3 0 -6 5 -10 10 -10 15 0 25 31 12 39 -7 4 -8 12 -2 21 8 13 11 12 23
-4 10 -14 16 -16 21 -7 6 9 11 9 22 0 12 -10 17 -8 27 5 7 10 20 16 28 14 16
-3 19 2 19 32 0 11 -7 20 -15 20 -14 0 -19 -12 -16 -32 2 -15 -27 -8 -33 7 -3
8 -16 15 -28 15 -26 0 -37 7 -58 35 l-15 20 24 -20 c21 -17 24 -18 18 -2 -4
11 -1 17 9 17 8 0 14 -6 12 -12 -2 -7 2 -15 7 -18 5 -3 11 3 13 13 3 12 -5 19
-27 23 -26 5 -31 11 -31 35 0 29 19 52 21 25 1 -9 2 -20 3 -26 0 -5 22 -20 47
-33 40 -20 48 -21 56 -8 5 8 15 11 21 7 17 -10 15 -29 -3 -22 -8 3 -15 1 -15
-4 0 -6 9 -10 20 -10 11 0 20 5 20 12 0 7 16 -3 35 -22 19 -19 35 -29 35 -22
0 7 -4 12 -8 12 -5 0 -14 11 -20 25 -13 28 -16 52 -6 42 4 -3 15 -2 26 4 19
10 19 11 2 24 -12 9 -27 10 -48 4 -16 -5 -32 -6 -35 -4 -8 8 4 15 32 17 15 1
27 7 27 12 0 5 7 1 15 -10 16 -21 20 -5 6 29 -6 17 -8 17 -34 -3 -15 -12 -27
-17 -27 -11 0 6 5 11 11 11 5 0 9 8 8 18 -3 33 1 42 19 42 14 0 15 2 2 10 -18
11 -9 21 24 24 27 3 36 -8 14 -17 -7 -3 -3 -6 8 -6 23 -1 37 20 28 43 -3 7 2
16 10 19 18 7 31 -8 16 -18 -19 -12 -10 -21 18 -19 15 1 28 3 30 3 10 3 -22
41 -34 41 -20 0 -13 20 13 37 14 10 23 11 28 4 3 -6 -1 -11 -11 -11 -13 0 -14
-3 -4 -15 7 -8 10 -15 6 -15 -3 0 3 -9 14 -20 18 -18 19 -23 7 -35 -8 -8 -24
-11 -36 -8 l-21 5 18 -41 c24 -53 32 -60 32 -29 0 15 6 29 13 32 6 3 1 3 -13
-1 l-25 -6 24 25 c22 22 27 24 39 11 8 -8 17 -11 20 -8 3 3 -3 11 -13 19 -11
8 -15 18 -10 26 5 9 4 11 -4 6 -13 -8 -18 3 -24 60 -4 39 -3 41 19 36 18 -3
24 0 24 13 0 10 -5 15 -14 12 -10 -4 -12 0 -9 14 5 18 7 19 23 4 10 -9 16 -24
13 -35 -3 -11 2 -27 12 -36 16 -16 16 -15 11 19 -4 23 -2 37 5 37 5 0 8 4 4 9
-3 5 0 13 6 17 6 3 15 0 20 -7 6 -10 9 -8 9 9 0 15 4 21 12 16 6 -4 8 -3 4 4
-3 5 -20 8 -36 6 -24 -4 -30 -2 -30 13 0 15 2 16 10 3 6 -9 10 -10 10 -3 0 6
10 15 21 18 12 4 18 10 13 14 -16 10 -35 64 -27 71 4 4 18 -3 31 -16 23 -24
17 -35 -6 -12 -14 14 -16 0 -3 -21 12 -18 41 -7 41 16 0 10 7 29 16 41 8 12
10 22 5 22 -6 0 -11 -4 -11 -10 0 -5 -7 -10 -15 -10 -8 0 -15 7 -15 15 0 8 8
15 18 15 10 0 25 9 35 20 17 21 37 27 37 11 0 -5 -10 -12 -22 -15 -22 -6 -22
-7 -4 -18 15 -8 21 -8 24 0 6 18 20 14 31 -7 8 -14 7 -22 -6 -32 -15 -12 -16
-12 -10 4 7 20 -1 21 -38 7 -21 -8 -25 -14 -20 -31 5 -14 2 -25 -6 -30 -11 -6
-11 -11 -1 -21 8 -8 12 -8 12 -1 0 14 28 43 41 43 5 0 9 -7 9 -16 0 -8 -4 -12
-10 -9 -11 7 -13 -6 -4 -29 3 -9 14 -16 23 -16 9 0 12 3 6 8 -14 10 -13 72 1
72 6 0 16 6 22 13 6 7 25 12 42 11 16 -1 28 1 25 6 -2 4 -15 8 -29 8 -25 0
-72 39 -61 50 4 4 13 -1 20 -12 8 -10 20 -16 27 -14 20 8 58 -9 58 -26 0 -7 6
-13 14 -12 8 0 15 -3 16 -9 1 -5 9 -18 17 -28 12 -13 18 -14 24 -5 5 7 -3 22
-19 37 -15 14 -26 29 -24 33 1 4 -5 8 -13 8 -9 0 -12 6 -9 15 8 20 14 19 44
-6 14 -11 19 -18 13 -14 -16 8 -16 0 -2 -26 5 -11 15 -17 21 -13 5 4 14 0 19
-7 6 -9 9 -10 9 -2 0 6 -7 18 -15 27 -8 8 -15 20 -15 27 0 6 -8 18 -17 26 -17
12 -16 13 7 11 16 -2 26 -11 31 -28 6 -21 7 -19 8 13 1 21 -3 36 -8 33 -13 -9
-44 31 -35 46 4 7 4 10 -1 6 -4 -4 -15 -2 -23 5 -13 10 -15 9 -10 -5 11 -27
-34 -32 -55 -5 -10 13 -15 15 -11 6 3 -10 0 -20 -7 -25 -8 -4 -10 -3 -5 4 4 7
1 12 -8 12 -19 0 -20 4 -4 29 6 10 8 26 5 35 -11 27 -24 18 -19 -14 3 -23 0
-30 -12 -30 -10 0 -13 -6 -10 -15 5 -11 -1 -15 -20 -15 -14 0 -25 -3 -25 -7 3
-19 -2 -33 -11 -33 -18 0 -11 38 10 53 18 12 20 22 15 71 -6 54 7 78 20 37 4
-13 12 -17 26 -14 12 4 25 0 30 -8 7 -11 9 -9 9 8 0 16 -4 21 -15 17 -8 -4
-15 -2 -15 4 0 6 6 12 13 15 6 3 2 4 -10 4 -13 -1 -23 -6 -23 -12 0 -5 -5 -2
-11 8 -12 20 -1 47 11 27 9 -15 30 -5 30 15 0 13 29 29 38 20 3 -3 1 -5 -5 -5
-19 0 -23 -31 -7 -56 20 -30 39 -32 23 -3 -8 17 -8 20 1 14 7 -4 16 -1 22 6 7
11 8 9 6 -6 -4 -24 20 -27 45 -7 11 10 17 11 17 4 0 -18 14 -14 45 12 17 14
35 22 47 18 18 -4 19 -3 7 16 -22 35 -4 35 32 1 23 -21 30 -33 21 -36 -10 -4
-10 -8 -1 -19 16 -20 32 -17 47 6 7 12 8 20 2 20 -5 0 -10 -4 -10 -10 0 -5 -4
-10 -9 -10 -5 0 -9 6 -8 13 1 36 -5 47 -25 48 l-23 2 23 4 c12 2 22 9 22 14 0
12 -7 11 -31 -1 -15 -9 -21 -7 -25 5 -4 9 -12 14 -19 11 -7 -2 -21 4 -31 15
-11 12 -13 19 -5 19 9 0 10 13 5 47 -6 40 -5 45 10 40 9 -4 16 -3 16 1 0 4 9
8 20 8 11 0 20 -4 20 -8 0 -4 5 -8 10 -8 14 0 12 38 -2 42 -7 3 -12 26 -13 61
0 50 1 55 15 42 12 -12 12 -19 2 -35 -10 -16 -9 -18 3 -14 18 7 20 -7 3 -24
-9 -9 -9 -12 0 -12 7 0 12 5 12 10 0 6 5 10 11 10 8 0 8 -4 -1 -15 -6 -8 -9
-19 -5 -25 11 -18 25 -11 25 15 0 20 5 25 25 25 23 0 24 2 13 25 -11 25 -11
25 -29 4 -11 -12 -20 -16 -24 -9 -11 18 5 50 26 50 25 0 25 16 0 23 -13 3 -21
-1 -24 -14 -6 -23 -27 -26 -27 -4 0 8 5 15 10 15 6 0 10 7 10 16 0 8 4 13 9 9
13 -8 41 23 41 45 0 10 -4 22 -10 25 -5 3 -7 0 -4 -8 3 -8 -3 -17 -13 -21 -13
-6 -14 -9 -4 -15 9 -6 5 -10 -13 -13 -14 -3 -26 -1 -26 3 0 5 5 9 11 9 5 0 7
5 4 10 -4 7 -12 7 -25 0 -25 -14 -27 -13 -33 10 -3 11 -1 18 3 15 5 -3 14 3
19 14 16 28 14 33 -9 26 -11 -3 -20 -2 -20 3 0 16 13 21 31 12 12 -7 19 -6 22
3 3 6 6 3 6 -7 1 -11 -6 -27 -14 -36 -14 -16 -13 -17 15 -18 20 0 30 4 30 14
0 8 8 14 18 14 15 1 14 3 -5 19 -12 10 -21 25 -19 34 3 20 16 35 16 19 0 -23
16 -12 29 21 l12 32 10 -24 c7 -17 6 -27 -2 -32 -7 -4 -1 -6 13 -6 21 2 25 7
27 41 1 22 4 43 7 48 3 4 1 8 -5 8 -5 0 -13 -4 -16 -10 -3 -5 -19 -10 -35 -10
-15 0 -31 -6 -33 -12 -4 -10 -8 -9 -16 2 -17 23 -13 27 24 24 l35 -3 -17 23
c-10 13 -20 20 -21 15 -2 -5 -8 -7 -12 -4 -14 9 -49 -17 -43 -31 3 -8 -2 -11
-14 -8 -22 5 -55 -15 -35 -23 21 -8 15 -49 -8 -49 -11 0 -20 4 -20 8 0 4 7 8
15 8 8 0 15 5 15 11 0 6 -9 8 -22 4 -17 -6 -20 -4 -15 9 22 53 22 52 -1 32
-22 -19 -22 -19 -23 0 0 14 -2 15 -6 4 -12 -32 -25 -41 -40 -28 -12 10 -18 9
-29 -7 -8 -11 -12 -26 -9 -33 3 -7 -2 -20 -10 -28 -13 -14 -15 -13 -16 8 -1
13 -2 28 -4 33 -1 6 -3 18 -3 29 -2 14 -7 17 -28 12 -29 -8 -54 -29 -54 -46 0
-6 10 -2 22 9 11 11 26 18 31 14 6 -4 3 -11 -6 -18 -21 -15 -22 -26 -2 -19 8
4 15 1 15 -5 0 -6 -7 -11 -16 -11 -24 0 -12 -35 14 -38 12 -2 22 -10 22 -17 0
-10 -6 -12 -17 -8 -17 6 -17 6 0 -11 14 -14 15 -21 6 -32 -15 -19 -24 -18 -26
4 -5 65 -3 64 -63 60 -49 -3 -56 -1 -65 19 -7 16 -15 21 -30 17 -20 -5 -20 -5
-1 10 11 9 14 16 7 16 -7 0 -9 5 -6 11 4 6 14 8 22 5 10 -4 13 -2 10 8 -4 10
-1 13 8 10 10 -4 11 -13 4 -37 -11 -41 -12 -40 5 -25 7 7 12 18 9 24 -2 6 3
17 12 24 18 15 21 0 3 -18 -7 -7 -9 -12 -5 -12 4 0 3 -8 -2 -18 -8 -15 -4 -18
30 -18 21 -1 39 2 39 7 0 5 -5 8 -11 7 -6 -2 -16 13 -22 32 -7 19 -16 35 -22
35 -5 0 -27 8 -47 18 -30 14 -38 24 -38 45 -1 25 -2 25 -12 8 -10 -17 -12 -18
-22 -4 -6 9 -19 17 -28 19 -15 4 -15 7 -3 29 l14 25 9 -24 9 -25 25 25 c28 27
53 35 63 19 10 -17 25 -11 19 8 -5 15 -4 15 10 -2 8 -10 19 -15 25 -12 5 4 16
-3 23 -13 8 -11 26 -25 41 -30 33 -13 37 -35 5 -25 -42 12 -78 34 -78 47 0 8
-4 7 -10 -3 -6 -10 -10 -11 -10 -2 0 6 -6 12 -14 12 -8 0 -16 5 -18 11 -3 8
-10 8 -26 -2 -17 -10 -21 -20 -17 -37 9 -38 40 -65 64 -57 13 4 21 2 21 -6 0
-8 3 -9 13 0 8 6 17 8 20 4 4 -3 7 -1 7 5 0 7 -4 12 -10 12 -5 0 -10 8 -10 18
1 14 3 14 19 -6 11 -12 21 -18 23 -12 2 6 18 2 38 -8 35 -19 60 -19 60 0 0 6
-7 16 -15 22 -19 14 -5 71 22 91 10 7 15 16 12 20 -4 3 -14 -1 -22 -10 -9 -8
-20 -15 -26 -15 -15 0 -14 47 2 53 9 4 8 8 -3 16 -13 9 -11 12 8 17 17 5 20
10 12 19 -8 9 -8 15 0 20 5 3 10 -1 10 -9 0 -9 5 -16 12 -16 6 0 4 -8 -6 -19
-11 -12 -14 -21 -7 -26 6 -3 11 -2 11 4 0 6 6 8 14 5 8 -3 12 -13 9 -22 -4
-14 -3 -14 5 -3 7 10 7 21 1 33 -5 10 -6 18 -2 19 4 0 16 2 26 4 21 4 21 7 -3
-39 -19 -38 -19 -56 1 -56 6 0 7 5 4 10 -6 9 21 45 34 45 3 0 4 7 3 16 -2 12
4 16 20 14 13 -1 24 -4 26 -5 1 -1 8 -3 15 -4 13 -1 17 -24 7 -41 -5 -9 -5
-19 -1 -49 0 -5 7 -3 15 3 8 7 12 20 9 31 -4 15 -1 18 19 14 l23 -5 -22 12
c-13 7 -23 18 -23 26 0 7 -6 16 -13 19 -8 3 -14 18 -14 34 0 16 4 27 8 24 4
-2 10 0 14 6 3 5 -2 10 -12 10 -17 1 -17 1 0 14 26 20 21 26 -20 26 -37 0 -38
0 -13 13 14 7 27 10 30 7 3 -4 15 -9 28 -12 18 -5 22 -2 22 17 0 13 4 26 9 29
5 3 7 -9 5 -27 -1 -17 -3 -38 -3 -44 -1 -7 -8 -13 -16 -13 -8 0 -15 -7 -15
-15 0 -17 16 -20 25 -5 11 18 45 11 45 -9 0 -11 5 -23 10 -26 6 -3 10 1 10 9
0 18 25 22 35 6 10 -16 26 -11 23 8 -4 22 -29 41 -46 34 -11 -4 -11 -6 0 -13
10 -7 9 -9 -4 -9 -14 0 -16 6 -11 30 3 19 1 30 -6 30 -6 0 -11 -4 -11 -10 0
-5 -4 -10 -9 -10 -5 0 -7 9 -4 20 3 11 10 20 15 20 5 0 6 10 3 21 -6 19 -5 20
7 8 8 -7 13 -21 11 -30 -3 -12 7 -22 36 -35 22 -11 39 -24 37 -30 -7 -18 34
-48 47 -35 9 9 6 13 -11 17 -31 9 -28 24 6 25 15 0 21 3 14 6 -6 2 -10 9 -6
14 3 5 -5 8 -18 6 -15 -1 -23 4 -26 18 -4 20 -3 20 11 1 10 -14 16 -16 21 -7
6 9 12 7 23 -6 13 -17 14 -16 8 11 -4 21 -3 27 7 24 52 -20 58 -20 59 4 0 13
3 18 5 11 3 -7 12 -9 20 -6 18 7 18 -7 -1 -33 -8 -12 -11 -25 -7 -29 4 -5 -1
-5 -10 -2 -19 7 -34 -8 -19 -17 16 -10 41 5 41 26 0 10 4 17 9 14 12 -8 44 31
36 44 -3 5 -10 8 -15 5 -5 -3 -11 -1 -15 5 -7 12 1 12 43 4 22 -5 29 -10 25
-22 -4 -10 -2 -13 5 -8 21 13 14 44 -10 49 -20 4 -19 4 5 6 30 1 35 15 13 37
-15 14 -10 58 5 49 4 -3 6 -12 3 -20 -3 -7 4 -23 15 -34 24 -24 40 -28 21 -6
-7 8 -9 15 -5 15 4 0 2 7 -5 15 -9 11 -9 15 -1 15 6 0 14 -7 18 -16 3 -8 12
-13 19 -10 10 4 14 -5 15 -37 1 -23 1 -48 0 -55 -2 -10 2 -11 18 -2 12 6 21
18 21 27 0 12 -3 13 -14 3 -12 -9 -15 -8 -13 9 1 12 5 21 10 21 5 0 4 7 -3 15
-15 18 1 20 19 3 10 -11 12 -10 9 2 -2 8 -12 18 -23 22 -14 4 -11 6 13 5 17
-1 32 -2 32 -4 0 -1 -5 -12 -11 -25 -7 -16 -7 -31 0 -48 5 -14 10 -19 10 -12
1 7 5 11 10 7 6 -3 7 6 3 22 -9 35 -4 83 9 83 6 0 8 -4 5 -9 -4 -5 0 -12 6
-14 10 -4 9 -8 -2 -16 -13 -10 -12 -13 5 -23 25 -15 47 -19 40 -7 -3 4 1 19
10 32 8 13 12 27 8 31 -4 4 1 4 12 1 17 -5 17 -4 -2 11 -23 17 -31 44 -13 44
6 0 10 -5 10 -11 0 -6 6 -9 14 -6 7 3 19 0 25 -6 9 -9 14 -9 20 1 6 10 10 9
14 -7 3 -12 11 -21 17 -21 7 0 9 7 6 15 -3 8 -9 22 -12 30 -3 8 -2 15 4 15 5
0 13 -11 16 -25 5 -21 9 -23 24 -14 13 8 27 7 57 -5 48 -20 49 -20 53 -7 2 6
-3 11 -12 11 -12 0 -13 5 -5 30 12 33 11 32 33 24 9 -3 13 -10 10 -15 -3 -5
-9 -7 -14 -4 -4 3 -11 -2 -14 -11 -3 -8 -2 -13 3 -9 5 3 12 -1 14 -7 3 -8 6
-6 6 5 1 9 7 17 15 17 9 0 12 -7 9 -19 -3 -10 0 -22 6 -25 7 -5 11 4 11 23 0
34 16 51 23 24 4 -17 4 -17 12 0 5 12 2 24 -8 35 -15 14 -17 14 -23 -1 -8 -21
-24 -22 -24 -2 0 8 -7 15 -15 15 -8 0 -15 5 -15 11 0 7 -9 9 -21 6 -13 -3 -19
-1 -16 6 2 7 9 12 15 11 7 -1 21 -2 33 -2 11 -1 18 -6 15 -10 -3 -5 10 -9 29
-9 27 0 35 4 35 19 0 20 -15 24 -25 8 -5 -8 -11 -7 -20 0 -8 7 -20 8 -26 4 -7
-4 -9 -3 -6 3 4 5 21 10 39 11 18 0 38 8 45 17 6 10 17 15 24 13 8 -3 7 -9 -5
-20 -15 -16 -15 -17 4 -15 23 1 29 42 8 50 -7 3 -3 6 10 6 13 1 21 -3 17 -8
-3 -6 4 -15 15 -21 12 -6 19 -18 16 -25 -2 -7 1 -19 9 -25 7 -6 12 -24 10 -40
-5 -34 13 -51 43 -43 32 8 29 27 -4 22 -13 -2 -23 26 -22 63 0 26 5 38 15 38
8 0 12 4 8 9 -3 5 2 17 11 25 14 15 13 16 -7 16 -12 0 -20 3 -17 6 10 10 129
34 139 28 14 -8 11 -24 -4 -24 -17 0 -52 -38 -44 -47 4 -3 2 -12 -3 -19 -8 -9
-5 -12 13 -10 23 1 28 26 6 26 -5 0 -9 5 -9 10 0 6 11 4 24 -5 18 -12 22 -22
18 -43 -4 -22 -2 -25 9 -14 11 10 11 19 2 43 -9 22 -9 38 -2 50 10 20 49 26
49 8 0 -8 4 -8 14 0 10 9 15 8 19 -3 3 -8 1 -17 -6 -19 -7 -2 -8 -8 -4 -13 11
-12 28 18 21 39 -3 9 -1 17 5 17 6 0 10 -5 9 -11 -2 -6 2 -13 7 -15 6 -2 18
15 27 37 14 33 22 40 38 36 11 -3 20 -2 20 3 0 4 24 12 52 18 59 11 72 4 57
-35 -8 -21 -7 -22 11 -11 13 8 18 19 14 30 -3 10 0 18 6 18 6 0 8 5 5 10 -3 6
1 10 10 10 9 0 13 -4 10 -10 -3 -5 -1 -10 4 -10 6 0 11 6 11 13 0 14 171 53
194 44 8 -3 16 -2 18 3 3 9 48 20 363 87 66 14 147 31 180 38 36 8 61 9 64 3
1 -5 8 -3 15 5 6 7 150 44 321 81 1317 289 2580 605 3765 941 356 101 954 279
1235 369 77 24 147 44 155 44 10 0 11 -1 2 -5z m-8092 -2631 c0 -4 -13 -13
-29 -20 -19 -9 -28 -18 -24 -28 3 -8 0 -14 -7 -14 -6 0 -8 -4 -5 -10 10 -16
23 -12 30 9 3 11 13 22 21 25 12 5 15 2 10 -11 -4 -9 -1 -20 5 -24 19 -11 17
-58 -3 -76 -22 -19 -30 -13 -30 22 0 20 -3 23 -14 14 -8 -6 -25 -9 -39 -7 -13
3 -22 1 -19 -3 3 -5 0 -9 -5 -9 -15 0 -13 -11 4 -34 14 -18 15 -18 34 5 11 13
23 20 27 16 5 -4 2 -12 -5 -16 -7 -5 -11 -13 -7 -19 3 -6 -8 -9 -29 -9 -23 1
-35 6 -35 15 0 8 -6 12 -15 8 -10 -4 -15 1 -15 14 0 16 -5 19 -30 14 -22 -5
-31 -2 -36 10 -3 9 -11 13 -18 9 -6 -3 -7 -2 -3 3 5 5 12 9 15 9 4 0 13 4 20
8 7 5 12 4 12 -2 0 -6 -6 -11 -12 -11 -7 0 -5 -5 6 -11 19 -12 35 1 36 27 0 6
11 16 25 22 26 12 33 4 15 -14 -7 -7 -7 -11 2 -11 7 0 23 -3 36 -7 22 -7 31 7
12 19 -6 3 -7 17 -4 31 5 20 3 23 -12 17 -12 -4 -15 -3 -10 6 5 7 14 10 22 7
8 -3 14 -1 14 4 0 6 6 10 14 10 8 0 17 7 20 16 5 14 26 11 26 -4z m14336 -94
c-1 -17 5 -24 24 -26 20 -2 22 -1 10 7 -8 6 -12 11 -8 11 3 0 13 3 22 6 28 11
18 -21 -14 -45 -24 -17 -30 -28 -26 -49 2 -15 5 -31 5 -35 1 -12 31 19 31 32
0 6 9 2 20 -9 11 -11 27 -20 35 -20 8 0 15 -4 15 -10 0 -5 -5 -10 -10 -10 -6
0 -10 -8 -8 -17 2 -13 -3 -17 -17 -15 -18 2 -18 1 -5 -10 18 -15 24 -58 9 -58
-6 0 -7 -4 -4 -10 3 -5 1 -10 -4 -10 -6 0 -11 -9 -11 -20 0 -12 5 -17 14 -14
25 9 27 -37 3 -57 -12 -10 -16 -18 -9 -19 6 0 12 5 12 12 0 6 9 2 21 -10 11
-12 25 -20 31 -16 7 4 5 10 -3 16 -10 6 -2 8 24 6 25 -3 37 0 37 9 0 12 -13
17 -32 14 -9 -1 -10 13 -2 22 12 11 45 -30 47 -59 2 -23 -3 -30 -20 -32 -24
-4 -32 13 -10 21 7 2 8 8 3 13 -5 5 -11 4 -13 -3 -3 -7 -11 -13 -19 -13 -8 0
-14 -5 -14 -12 0 -6 3 -8 6 -5 4 4 19 -2 34 -13 34 -24 40 -25 40 -5 0 8 5 15
10 15 6 0 9 -3 9 -7 -1 -5 0 -10 1 -13 1 -3 3 -15 4 -27 2 -18 -2 -21 -23 -18
-14 1 -34 3 -43 4 -10 0 -17 4 -16 9 3 14 -14 42 -23 36 -5 -3 -9 4 -9 16 0
12 -4 18 -10 15 -6 -4 -26 -1 -45 5 -25 8 -35 18 -36 33 0 13 -3 16 -6 8 -5
-11 -7 -11 -14 0 -7 11 -9 10 -9 -3 0 -9 4 -19 10 -23 5 -3 7 -12 3 -20 -3 -8
0 -15 6 -15 6 0 11 -5 11 -11 0 -5 -5 -7 -10 -4 -6 3 -23 -3 -39 -14 -15 -11
-31 -18 -34 -15 -4 5 -32 7 -165 13 -22 1 -32 5 -29 14 2 6 10 11 16 9 7 -1
10 2 6 8 -4 6 -12 5 -25 -2 -10 -7 -16 -16 -14 -20 3 -4 -4 -8 -16 -8 -11 0
-23 6 -26 14 -3 7 -16 14 -29 14 -14 0 -22 -5 -19 -9 6 -10 -134 -5 -143 4 -2
3 0 14 6 25 13 24 5 52 -16 52 -8 0 -12 4 -8 10 3 5 12 7 19 4 8 -3 17 -1 21
5 7 12 -29 10 -41 -2 -4 -4 -14 -7 -23 -7 -14 0 -14 2 -1 10 10 6 11 10 3 10
-7 0 -13 5 -13 10 0 6 6 10 13 9 6 -1 21 2 31 6 13 6 21 5 24 -3 4 -12 10 -8
52 30 11 9 27 14 39 11 12 -3 21 -1 21 6 0 6 -4 11 -10 11 -5 0 -10 16 -10 35
0 38 0 38 -24 29 -20 -8 -21 -24 -1 -24 8 0 15 -7 15 -16 0 -8 -4 -12 -10 -9
-5 3 -10 2 -10 -2 0 -5 -7 -18 -16 -29 -8 -10 -12 -13 -8 -5 4 7 8 31 9 53 2
33 0 38 -14 32 -9 -4 -27 -8 -41 -10 l-25 -4 25 10 c14 6 31 18 39 28 10 12
15 14 18 5 8 -23 25 -14 17 9 -6 20 -5 21 10 9 9 -7 16 -20 16 -27 0 -8 5 -14
11 -14 5 0 7 -4 4 -10 -3 -5 -2 -10 4 -10 5 0 13 5 16 10 3 6 2 10 -2 10 -5 0
-14 14 -20 30 -8 21 -18 30 -35 30 -20 1 -21 2 -6 10 24 14 70 -8 63 -30 -3
-9 3 -24 14 -34 19 -17 19 -17 7 19 -7 20 -20 45 -28 55 -9 9 -21 26 -28 36
-9 14 -10 15 -6 2 5 -16 -21 -34 -32 -23 -3 3 1 5 9 5 10 1 7 6 -7 18 -16 14
-19 23 -13 41 5 12 14 19 20 16 8 -5 8 -10 0 -18 -16 -16 -13 -30 4 -23 17 6
53 -5 54 -16 1 -5 9 -16 19 -26 20 -20 42 -8 34 18 -8 22 -29 40 -37 32 -5 -4
-5 -2 -2 4 3 6 16 10 29 8 13 -1 26 -3 31 -3 4 -1 7 -6 7 -12 0 -5 -4 -8 -9
-5 -5 3 -8 -12 -7 -33 1 -30 4 -37 14 -29 16 13 17 -13 1 -29 -7 -7 -8 -13 0
-17 6 -4 19 2 31 14 16 16 20 17 20 5 0 -17 -47 -65 -63 -65 -5 0 -4 -7 3 -15
14 -17 5 -50 -11 -39 -8 4 -7 9 2 15 11 7 10 9 -3 9 -20 0 -37 -22 -20 -28 6
-2 -2 -15 -18 -30 -25 -24 -27 -32 -20 -62 4 -19 8 -27 9 -17 1 9 5 17 10 17
5 0 7 10 4 23 l-6 22 22 -22 c26 -27 26 -30 4 -36 -10 -3 1 -4 24 -4 24 1 43
7 43 12 0 6 4 3 9 -5 6 -8 7 -18 4 -23 -3 -5 0 -8 8 -5 8 3 14 10 14 16 0 5 3
14 8 18 4 4 7 2 7 -4 0 -6 7 -9 17 -5 11 4 14 3 9 -6 -12 -19 38 -8 60 14 14
14 16 19 5 23 -7 2 -23 15 -34 28 -11 13 -29 24 -38 24 -12 0 -16 5 -13 15 9
22 32 18 45 -7 13 -25 28 -38 44 -38 6 1 2 7 -7 14 -21 16 -24 40 -4 33 8 -3
16 2 19 14 3 10 1 19 -4 19 -5 0 -9 5 -9 11 0 6 7 9 15 5 12 -4 13 -2 3 14 -8
13 -16 16 -22 10 -6 -6 -15 -10 -20 -10 -6 0 -4 5 4 10 13 9 13 11 0 20 -13 8
-12 10 3 10 9 0 17 5 17 10 0 6 5 10 11 10 8 0 8 -5 -1 -15 -10 -12 -10 -15 3
-15 11 0 14 -5 10 -17 -5 -13 -2 -15 11 -10 11 4 15 3 10 -4 -4 -8 1 -9 15 -4
21 6 21 5 9 -15 -11 -18 -10 -23 11 -39 18 -14 21 -20 10 -24 -10 -4 -9 -6 4
-6 9 -1 17 6 17 14 0 8 4 15 9 15 17 0 20 -15 6 -34 -11 -14 -20 -17 -42 -10
-44 12 -46 11 -51 -26 -2 -19 -8 -39 -13 -44 -12 -13 -12 -26 0 -26 5 0 11 8
14 18 3 12 9 7 21 -20 16 -38 29 -47 41 -28 3 5 0 7 -7 5 -9 -4 -14 2 -15 15
-1 11 4 20 12 20 8 0 12 6 9 13 -5 14 30 57 48 57 6 0 5 7 -3 17 -10 11 -10
14 -1 9 7 -4 12 -1 12 8 0 9 -9 21 -20 28 -29 18 -25 29 9 23 33 -6 51 9 24
19 -9 4 -20 1 -25 -6 -6 -10 -8 -10 -8 0 0 6 -7 12 -15 12 -17 0 -20 16 -5 25
6 3 10 0 10 -7 0 -9 3 -9 10 2 6 10 10 11 10 3 0 -7 5 -13 10 -13 6 0 10 14
10 30 0 29 -13 40 -25 20 -11 -18 -35 2 -35 32 0 17 -4 27 -10 23 -5 -3 -10 1
-10 10 0 11 5 15 15 11 9 -3 15 0 15 10 0 8 -4 12 -10 9 -5 -3 -10 2 -10 12 0
15 -2 16 -11 3 -9 -13 -10 -13 -5 0 3 8 9 23 12 33 9 24 21 21 20 -5z m-908
-10 c-2 -7 7 -13 19 -13 11 0 25 -4 30 -9 4 -5 3 -6 -4 -3 -14 9 -45 -2 -38
-13 3 -5 1 -11 -4 -15 -15 -9 -1 -34 15 -28 9 3 13 12 10 19 -3 8 1 14 9 14 8
0 15 -6 15 -12 0 -9 4 -8 10 2 8 12 10 11 10 -7 0 -14 6 -23 15 -23 8 0 15 9
15 20 0 11 5 20 12 20 6 0 8 -3 5 -6 -12 -12 14 -46 30 -40 13 5 14 4 3 -9 -7
-8 -16 -12 -21 -9 -5 3 -9 1 -9 -5 0 -5 5 -13 10 -16 6 -3 10 -2 10 4 0 5 9 9
20 8 11 -1 20 -5 20 -10 0 -5 7 -7 15 -3 8 3 15 1 15 -3 0 -5 -6 -11 -12 -14
-10 -3 -10 -8 1 -18 9 -9 11 -9 7 -1 -4 6 -2 12 3 12 6 0 11 -4 11 -9 0 -5 8
-7 19 -4 11 3 24 -3 33 -15 8 -12 26 -24 41 -27 15 -4 27 -14 27 -22 0 -8 -4
-11 -10 -8 -5 3 -10 1 -10 -4 0 -14 6 -14 31 0 15 8 24 7 37 -3 13 -11 15 -11
7 2 -6 12 -5 13 6 2 11 -10 10 -15 -4 -29 -12 -13 -17 -14 -17 -4 0 11 -3 11
-15 1 -8 -7 -15 -19 -15 -26 0 -15 -9 -17 -50 -15 -22 1 -23 0 -7 -9 9 -6 17
-19 18 -28 0 -12 3 -11 9 6 12 28 30 29 23 1 -4 -14 -1 -20 8 -18 19 3 49 -11
49 -23 0 -6 -7 -8 -14 -5 -11 4 -13 1 -9 -10 5 -13 3 -14 -15 -4 -12 6 -23 7
-26 2 -3 -5 -15 -7 -26 -4 -15 4 -18 9 -10 18 5 6 7 15 3 18 -11 11 -23 8 -23
-6 0 -8 -7 -14 -15 -14 -8 0 -15 4 -15 9 0 5 -4 6 -10 3 -5 -3 -10 -1 -10 5 0
6 8 10 17 8 11 -2 18 4 20 17 1 11 0 15 -3 9 -3 -8 -13 -4 -29 10 -13 11 -19
23 -14 27 5 3 7 13 3 22 -3 9 -11 14 -17 10 -6 -4 -8 0 -4 11 4 10 3 15 -3 11
-6 -3 -10 -13 -10 -21 0 -8 -7 -14 -15 -14 -8 0 -15 5 -15 12 0 6 -7 20 -17
30 -9 11 -11 18 -5 18 18 0 14 36 -5 51 -15 13 -15 12 -4 -8 7 -15 8 -23 1
-23 -5 0 -10 -7 -10 -15 0 -20 -13 -19 -34 4 -14 15 -15 24 -7 40 9 17 8 20
-9 18 -22 -1 -27 -13 -9 -19 7 -2 5 -9 -5 -17 -14 -11 -16 -11 -16 3 0 9 -4
16 -10 16 -5 0 -10 -5 -10 -10 0 -6 -9 -20 -20 -32 -14 -15 -20 -17 -20 -7 0
14 20 50 20 37 0 -5 8 0 18 10 23 22 2 38 -28 22 -11 -6 -20 -8 -20 -4 0 3 -8
0 -17 -7 -16 -13 -17 -12 -4 4 8 9 11 21 7 24 -4 4 -10 3 -14 -2 -4 -6 -20
-10 -37 -11 -36 -1 -57 23 -44 48 10 19 -4 33 -22 22 -12 -7 -29 12 -29 34 0
7 12 17 27 23 20 7 24 12 14 18 -9 6 -5 9 13 9 15 0 29 -4 32 -9 7 -12 -22
-40 -38 -38 -23 3 -38 -1 -38 -9 0 -18 52 -4 78 21 31 30 42 33 42 13 0 -7 7
-20 16 -27 15 -12 16 -11 9 10 -6 21 -5 22 17 16 16 -4 19 -3 9 3 -7 5 -10 15
-7 21 9 15 17 14 14 -1z m-13598 -97 c0 -6 5 -11 11 -11 5 0 8 4 4 9 -3 5 0
13 6 16 21 13 21 -4 0 -33 -30 -43 -27 -50 27 -46 48 3 83 -8 68 -23 -5 -4
-11 -2 -13 5 -3 6 -14 12 -26 12 -22 -1 -22 -1 -2 -11 30 -17 84 -80 79 -93
-6 -16 -45 -39 -52 -31 -4 4 0 12 8 18 23 18 13 56 -16 63 -13 3 -24 12 -24
19 0 7 -7 15 -15 19 -8 3 -15 1 -15 -5 0 -6 -7 -6 -20 1 -16 9 -20 8 -20 -5 0
-8 5 -15 10 -15 6 0 10 -5 10 -10 0 -7 -6 -7 -20 0 -17 9 -20 8 -20 -11 0 -17
-3 -19 -13 -10 -17 13 -28 4 -20 -16 4 -10 2 -14 -6 -12 -7 3 -12 8 -12 12 1
4 1 14 1 22 0 8 7 15 15 15 8 0 15 7 15 15 0 9 7 18 15 21 13 5 13 10 -2 35
-10 16 -21 29 -25 29 -5 0 -1 -12 9 -27 12 -18 14 -28 6 -30 -6 -2 -21 -13
-34 -24 -28 -24 -31 -24 -47 1 -7 12 -8 20 -2 20 5 0 10 -4 10 -10 0 -5 5 -10
10 -10 6 0 10 11 10 25 0 14 -4 25 -10 25 -5 0 -10 -5 -10 -11 0 -5 -5 -7 -12
-3 -9 6 -9 9 0 12 7 2 12 12 12 22 0 10 7 21 16 24 23 9 31 7 15 -3 -14 -9 -7
-71 9 -71 13 0 22 33 10 40 -15 9 -1 41 18 38 8 -2 17 3 19 10 3 6 0 12 -7 12
-6 0 -8 5 -5 10 7 11 35 -12 35 -29z m-222 -249 c13 -9 7 -42 -11 -53 -5 -3
-2 -22 7 -43 8 -20 11 -36 6 -36 -4 0 -10 4 -12 9 -5 13 -48 24 -48 11 0 -6
11 -28 25 -50 31 -50 32 -58 1 -25 -17 18 -26 22 -30 13 -3 -7 -3 -1 0 15 4
16 2 27 -5 27 -6 0 -11 -4 -11 -10 0 -5 -5 -10 -11 -10 -5 0 -7 5 -4 10 3 6 2
10 -2 10 -16 0 -33 -24 -33 -47 0 -13 -4 -23 -10 -23 -5 0 -10 5 -10 10 0 6
-7 10 -15 10 -8 0 -15 5 -15 11 0 6 9 9 20 6 13 -3 20 0 20 8 0 7 5 15 11 17
14 5 19 77 6 85 -15 9 44 54 65 47 10 -3 18 -1 18 5 0 13 20 14 38 3z"/>
<path d="M11091 11449 c6 -12 7 -19 2 -16 -5 3 -17 -10 -27 -28 -11 -19 -23
-32 -29 -28 -6 4 -7 1 -2 -6 5 -9 -2 -12 -26 -9 -28 2 -33 0 -31 -14 4 -23 0
-22 -26 1 -27 23 -28 35 -2 28 11 -3 20 -2 21 1 0 4 2 19 4 34 3 20 -2 27 -18
32 -11 3 -27 1 -33 -5 -16 -13 -6 -42 12 -35 8 3 14 1 14 -5 0 -5 -13 -12 -30
-15 -16 -4 -30 -11 -30 -16 0 -6 6 -8 14 -5 12 5 46 -24 46 -39 0 -4 -13 -4
-30 0 -26 5 -30 2 -30 -15 0 -14 5 -19 14 -16 8 3 17 1 20 -6 2 -7 5 -4 5 6 1
21 21 13 21 -8 0 -27 -38 -27 -67 -1 -35 33 -53 33 -53 1 0 -26 15 -34 23 -12
4 10 7 10 18 0 10 -10 10 -13 0 -13 -7 0 -9 -5 -6 -10 4 -6 11 -7 17 -4 7 4 8
2 4 -5 -4 -6 -12 -8 -18 -5 -16 10 -58 -17 -58 -38 0 -11 5 -16 11 -13 6 4 9
1 8 -6 -4 -21 23 -69 34 -62 5 3 6 -3 3 -15 -5 -15 -2 -22 13 -27 12 -4 18
-12 14 -21 -3 -7 -1 -14 5 -14 5 0 13 7 16 16 9 22 8 24 -11 24 -17 1 -17 1 0
11 9 5 17 18 17 29 0 10 6 21 13 23 6 3 -3 10 -20 17 -18 7 -33 16 -33 21 0
13 34 11 48 -3 6 -6 15 -8 19 -3 5 4 3 10 -4 12 -7 2 -10 10 -7 18 4 8 -3 15
-18 17 -20 4 -21 5 -5 12 13 6 22 3 32 -10 7 -10 11 -22 9 -26 -3 -5 -1 -8 5
-8 5 0 11 5 13 12 2 6 10 8 16 4 18 -11 15 -23 -8 -29 -11 -3 -20 -10 -20 -15
0 -14 41 -6 53 10 6 9 7 4 3 -12 -3 -14 -6 -33 -6 -44 0 -13 -5 -16 -16 -12
-13 5 -15 1 -10 -19 5 -19 2 -25 -9 -25 -9 0 -18 7 -21 15 -4 8 -10 15 -15 15
-14 0 -11 -26 4 -38 19 -16 57 -3 57 19 0 11 7 19 15 19 9 0 12 6 9 15 -4 8
-1 15 7 15 7 0 9 3 6 7 -4 3 2 12 13 20 24 17 26 33 5 33 -8 0 -15 -5 -15 -12
0 -6 -2 -9 -5 -6 -4 3 6 23 20 44 14 21 24 45 22 53 -1 9 4 22 13 29 8 8 9 11
3 7 -15 -7 -16 0 -4 42 8 27 7 32 -9 35 -17 3 -17 5 -4 23 13 17 16 18 24 5 6
-8 9 -22 8 -30 -2 -8 2 -16 7 -17 6 -2 10 12 10 30 0 17 4 37 8 44 4 7 -2 18
-15 27 -31 22 -41 20 -27 -5z"/>
<path d="M10799 10743 c-1 -5 -1 -11 0 -15 0 -5 -6 -8 -14 -8 -8 0 -15 -7 -15
-15 0 -19 5 -19 29 2 11 9 18 20 15 25 -3 4 -2 8 2 8 9 0 33 -32 34 -45 0 -5
-4 -4 -9 4 -7 11 -13 10 -30 -6 -14 -13 -30 -18 -47 -15 -14 2 -24 1 -23 -4 5
-29 -2 -55 -13 -48 -10 6 -10 4 0 -8 11 -14 10 -18 -5 -26 -10 -6 -15 -14 -11
-18 11 -10 38 16 38 37 0 26 61 70 88 62 12 -3 22 -12 22 -19 0 -17 -27 -18
-33 -1 -6 15 -43 -5 -39 -22 1 -6 -3 -11 -9 -11 -5 0 -7 -4 -4 -10 10 -17 25
-11 25 10 0 11 5 20 10 20 6 0 10 -5 10 -11 0 -6 6 -9 13 -6 6 2 22 -7 35 -20
12 -13 22 -20 22 -14 0 5 -4 13 -10 16 -18 11 -11 20 15 20 20 0 24 -4 19 -20
-8 -24 -1 -18 16 14 8 15 8 21 1 17 -7 -4 -11 1 -11 13 0 11 8 22 18 24 13 4
13 5 -4 6 -12 0 -24 9 -26 19 -3 10 -15 18 -27 19 -11 1 -28 9 -37 17 -16 17
-43 21 -45 9z"/>
</g>
</svg>
